<svg viewBox="0 0 35 34" xmlns="http://www.w3.org/2000/svg">
  <path d="M.8 17c0-3.083.75-5.927 2.251-8.534 1.501-2.607 3.54-4.67 6.115-6.188C11.742.759 14.554 0 17.6 0c3.046 0 5.858.76 8.434 2.278a16.781 16.781 0 0 1 6.115 6.188c1.5 2.607 2.251 5.451 2.251 8.534 0 3.083-.75 5.927-2.251 8.534a16.781 16.781 0 0 1-6.115 6.188C23.458 33.241 20.646 34 17.6 34c-3.046 0-5.858-.76-8.434-2.278a16.782 16.782 0 0 1-6.115-6.188C1.551 22.927.8 20.083.8 17zm2.789 0c0 3.536 1.176 6.653 3.528 9.35 1.075-2.13 2.777-4.16 5.107-6.086 2.33-1.927 4.603-3.14 6.82-3.638a40.64 40.64 0 0 0-.974-2.142c-3.852 1.247-8.019 1.87-12.499 1.87-.873 0-1.523-.011-1.949-.034 0 .09-.005.204-.016.34a4.28 4.28 0 0 0-.017.34zm.437-3.502c.492.045 1.22.068 2.184.068 3.74 0 7.29-.51 10.65-1.53-1.702-3.06-3.572-5.61-5.61-7.65-1.77.907-3.288 2.165-4.553 3.774a14.582 14.582 0 0 0-2.671 5.338zm5.006 14.688c2.531 1.995 5.387 2.992 8.568 2.992 1.658 0 3.304-.317 4.94-.952a50.423 50.423 0 0 0-2.622-11.254c-2.06.453-4.138 1.598-6.232 3.434-2.095 1.836-3.646 3.763-4.654 5.78zm5.14-24.888c1.972 2.063 3.798 4.635 5.478 7.718 3.046-1.292 5.342-2.935 6.888-4.93C23.939 3.91 20.96 2.822 17.6 2.822c-1.142 0-2.285.159-3.427.476zM20.86 13.43c.336.725.717 1.643 1.143 2.754a56.991 56.991 0 0 1 5.41-.238c1.388 0 2.766.034 4.132.102-.18-3.083-1.277-5.825-3.293-8.228-1.456 2.199-3.92 4.069-7.392 5.61zm1.983 5.134A49.294 49.294 0 0 1 25.16 28.9a14.107 14.107 0 0 0 4.334-4.454 13.84 13.84 0 0 0 2.016-5.882 65.106 65.106 0 0 0-4.468-.17 58.91 58.91 0 0 0-4.2.17z"/>
</svg>