<svg viewBox="0 0 35 34" xmlns="http://www.w3.org/2000/svg">
  <g>
    <path d="M17.4 3.063c4.486 0 5.017.017 6.789.099 1.638.076 2.527.353 3.12.585a5.2 5.2 0 0 1 1.93 1.272 5.27 5.27 0 0 1 1.258 1.955c.23.599.503 1.499.578 3.156.08 1.793.098 2.33.098 6.87s-.017 5.077-.098 6.87c-.075 1.657-.348 2.557-.578 3.156a5.273 5.273 0 0 1-1.257 1.955 5.2 5.2 0 0 1-1.932 1.272c-.592.232-1.481.51-3.12.585-1.77.082-2.302.099-6.788.099-4.486 0-5.017-.017-6.789-.1-1.637-.075-2.527-.352-3.12-.584a5.201 5.201 0 0 1-1.93-1.272 5.276 5.276 0 0 1-1.257-1.955c-.23-.599-.504-1.5-.579-3.157-.08-1.792-.098-2.33-.098-6.87 0-4.538.017-5.076.098-6.869.075-1.657.349-2.557.579-3.156A5.274 5.274 0 0 1 5.56 5.019a5.2 5.2 0 0 1 1.932-1.272c.592-.232 1.482-.51 3.12-.585 1.771-.082 2.302-.1 6.788-.1M17.4 0c-4.563 0-5.135.02-6.927.102-1.788.083-3.009.37-4.078.79A8.225 8.225 0 0 0 3.42 2.853a8.343 8.343 0 0 0-1.938 3.011c-.415 1.082-.7 2.317-.78 4.127C.618 11.804.6 12.383.6 17c0 4.617.02 5.196.101 7.009.082 1.81.366 3.045.781 4.127a8.344 8.344 0 0 0 1.938 3.01 8.225 8.225 0 0 0 2.975 1.962c1.069.42 2.29.707 4.078.79 1.792.082 2.364.102 6.927.102s5.135-.02 6.927-.102c1.788-.083 3.01-.37 4.078-.79a8.227 8.227 0 0 0 2.975-1.961 8.345 8.345 0 0 0 1.938-3.011c.416-1.082.7-2.318.781-4.127.082-1.813.101-2.392.101-7.01 0-4.616-.02-5.195-.1-7.008-.082-1.81-.366-3.045-.782-4.127a8.345 8.345 0 0 0-1.938-3.01A8.226 8.226 0 0 0 28.405.891c-1.069-.42-2.29-.707-4.078-.79C22.535.02 21.963 0 17.4 0"/>
    <path d="M17.4 8.27c-4.764 0-8.627 3.909-8.627 8.73 0 4.821 3.863 8.73 8.627 8.73 4.765 0 8.627-3.909 8.627-8.73 0-4.821-3.862-8.73-8.627-8.73m0 14.396c-3.093 0-5.6-2.536-5.6-5.666 0-3.13 2.507-5.667 5.6-5.667 3.093 0 5.6 2.537 5.6 5.667s-2.507 5.666-5.6 5.666M28.384 7.925c0 1.127-.903 2.04-2.016 2.04s-2.016-.913-2.016-2.04c0-1.126.903-2.04 2.016-2.04s2.016.914 2.016 2.04"/>
  </g>
</svg>