<svg viewBox="0 0 34 34" xmlns="http://www.w3.org/2000/svg">
  <path d="M30.24 0H3.36C1.512 0 0 1.53 0 3.4v27.2C0 32.47 1.512 34 3.36 34h26.88c1.848 0 3.36-1.53 3.36-3.4V3.4c0-1.87-1.512-3.4-3.36-3.4zM10.08 28.9H5.04V13.6h5.04v15.3zM7.56 10.71c-1.68 0-3.024-1.36-3.024-3.06S5.88 4.59 7.56 4.59s3.024 1.36 3.024 3.06-1.344 3.06-3.024 3.06zm21 18.19h-5.04v-9.01c0-1.36-1.176-2.55-2.52-2.55s-2.52 1.19-2.52 2.55v9.01h-5.04V13.6h5.04v2.04c.84-1.36 2.688-2.38 4.2-2.38 3.192 0 5.88 2.72 5.88 5.95v9.69z"/>
</svg>