<svg viewBox="0 0 38 32" xmlns="http://www.w3.org/2000/svg">
  <g>
    <path d="M16.61 19.672l-2.938-4.458a1.428 1.428 0 0 0-1.192-.642H2.4a1.428 1.428 0 0 0 0 2.856h9.31l2.938 4.458c.264.4.712.642 1.192.642h6.72c.48 0 .928-.241 1.192-.642l2.937-4.458H36a1.428 1.428 0 0 0 0-2.856H25.92c-.48 0-.928.241-1.192.642l-2.937 4.458h-5.182z"/>
    <path d="M1.12 15.367A1.428 1.428 0 0 0 .972 16v10.2c0 2.663 2.14 4.828 4.788 4.828h26.88c2.648 0 4.788-2.165 4.788-4.828V16c0-.22-.05-.436-.148-.633L31.484 3.654A4.783 4.783 0 0 0 27.198.972H11.203a4.784 4.784 0 0 0-4.288 2.683L1.12 15.367zM34.572 26.2c0 1.093-.869 1.972-1.932 1.972H5.76c-1.063 0-1.932-.88-1.932-1.972v-9.866L9.476 4.92a1.93 1.93 0 0 1 1.728-1.092h15.993c.728 0 1.397.42 1.725 1.088l5.65 11.418V26.2z"/>
  </g>
</svg>